<svg width="45" height="57" viewBox="0 0 45 57" fill="none" xmlns="http://www.w3.org/2000/svg">
<path d="M40.3332 21.6667C42.9999 24.5375 44.3332 28.1504 44.3332 32.5C44.3332 41.8871 34.4666 44.0808 29.6666 56.875C27.8879 55.3177 26.9999 53.0617 26.9999 50.1042C26.9999 40.6738 40.3332 35.7771 40.3332 21.6667ZM29.6666 10.8333C32.8666 14.1863 34.4666 17.7992 34.4666 21.6667C34.4666 35.0756 18.3466 37.0825 21.6666 56.875C17.2212 53.7333 14.9999 49.2185 14.9999 43.3333C14.9999 34.3281 29.6666 27.0833 29.6666 10.8333ZM17.6666 0C21.2212 4.51479 22.9999 8.57729 22.9999 12.1875C22.9999 29.1146 0.333252 34.4554 12.3333 56.875C5.35725 55.3042 0.333252 48.75 0.333252 40.625C0.333252 23.0208 17.6666 20.3125 17.6666 0Z" fill="black"/>
</svg>
