<svg width="43" height="61" viewBox="0 0 43 61" fill="none" xmlns="http://www.w3.org/2000/svg">
<g clip-path="url(#clip0)">
<path d="M31.677 30.9633V25.7461H35.087L42.5948 19.8467C42.7046 19.7687 42.7939 19.6668 42.8554 19.5492C42.9169 19.4316 42.949 19.3017 42.949 19.1699V1.57082C42.949 1.35105 42.8599 1.14004 42.7009 0.9831C42.5419 0.826159 42.3256 0.735795 42.0985 0.731409L19.2894 0.292073C19.136 0.288802 18.9844 0.325101 18.8503 0.397243C18.7161 0.469386 18.6042 0.574773 18.5261 0.702581L12.5515 10.4305C12.282 10.7886 12.4859 11.5925 12.8374 15.3672C10.4713 15.3598 10.1859 15.2649 9.80497 15.6723L0.382276 24.6686C0.00787322 24.9704 0 25.2663 0 25.2663L0.619927 43.7386H6.69504V60.2918H29.012L35.9365 55.6711C36.0557 55.5945 36.1534 55.4906 36.221 55.3686C36.2887 55.2466 36.3241 55.1103 36.3241 54.9719V36.1094C36.3241 35.8867 36.2327 35.6731 36.0699 35.5157C35.9072 35.3582 35.6864 35.2697 35.4562 35.2697H28.0061C30.6934 32.2759 31.6774 31.6237 31.677 30.9633ZM19.7601 1.98075L40.075 2.37203L32.6984 9.9127H14.8874L19.7601 1.98075ZM2.22752 25.2663L10.7619 17.1182L12.9325 17.1692L13.3901 25.2663H2.22752ZM29.012 58.1069V43.1989L34.5884 38.5425V54.5215L29.012 58.1068V58.1069ZM33.8405 36.949L26.8583 42.7791H20.4571L26.4599 36.949H33.8405ZM29.9412 30.6436L21.7682 39.5198L22.0689 25.7461H29.9412V30.6436ZM35.1291 23.0663L35.335 9.9127L41.2133 3.65137V18.7447L35.1291 23.0663Z" fill="black"/>
</g>
<defs>
<clipPath id="clip0">
<rect width="43" height="60" fill="white" transform="translate(0 0.291626)"/>
</clipPath>
</defs>
</svg>
