<svg width="21" height="13" viewBox="0 0 21 13" fill="none" xmlns="http://www.w3.org/2000/svg">
<path fill-rule="evenodd" clip-rule="evenodd" d="M1.29987 0.199951C1.09654 0.199951 0.901532 0.273701 0.757755 0.404977C0.613977 0.536252 0.533203 0.7143 0.533203 0.899951C0.533203 1.0856 0.613977 1.26365 0.757755 1.39493C0.901532 1.5262 1.09654 1.59995 1.29987 1.59995H19.6999C19.9032 1.59995 20.0982 1.5262 20.242 1.39493C20.3858 1.26365 20.4665 1.0856 20.4665 0.899951C20.4665 0.7143 20.3858 0.536252 20.242 0.404977C20.0982 0.273701 19.9032 0.199951 19.6999 0.199951H1.29987ZM0.533203 6.49995C0.533203 6.3143 0.613977 6.13625 0.757755 6.00498C0.901532 5.8737 1.09654 5.79995 1.29987 5.79995H19.6999C19.9032 5.79995 20.0982 5.8737 20.242 6.00498C20.3858 6.13625 20.4665 6.3143 20.4665 6.49995C20.4665 6.6856 20.3858 6.86365 20.242 6.99493C20.0982 7.1262 19.9032 7.19995 19.6999 7.19995H1.29987C1.09654 7.19995 0.901532 7.1262 0.757755 6.99493C0.613977 6.86365 0.533203 6.6856 0.533203 6.49995ZM0.533203 12.1C0.533203 11.9143 0.613977 11.7363 0.757755 11.605C0.901532 11.4737 1.09654 11.4 1.29987 11.4H19.6999C19.9032 11.4 20.0982 11.4737 20.242 11.605C20.3858 11.7363 20.4665 11.9143 20.4665 12.1C20.4665 12.2856 20.3858 12.4637 20.242 12.5949C20.0982 12.7262 19.9032 12.8 19.6999 12.8H1.29987C1.09654 12.8 0.901532 12.7262 0.757755 12.5949C0.613977 12.4637 0.533203 12.2856 0.533203 12.1Z" fill="black"/>
</svg>
