<svg width="64" height="60" viewBox="0 0 64 60" fill="none" xmlns="http://www.w3.org/2000/svg">
<path d="M50.18 1.79163H23.5133C20.58 1.79163 18.18 4.04163 18.18 6.79163V11.7916C18.18 13.1666 19.38 14.2916 20.8467 14.2916C22.3133 14.2916 23.5133 13.1666 23.5133 11.7916V9.29163H50.18V49.2916H23.5133V46.7916C23.5133 45.4166 22.3133 44.2916 20.8467 44.2916C19.38 44.2916 18.18 45.4166 18.18 46.7916V51.7916C18.18 54.5416 20.58 56.7916 23.5133 56.7916H50.18C53.1133 56.7916 55.5133 54.5416 55.5133 51.7916V6.79163C55.5133 4.04163 53.1133 1.79163 50.18 1.79163ZM18.2067 32.9666L13.0867 28.1666C12.1533 27.2916 10.6333 27.2916 9.7 28.1666C8.76667 29.0416 8.76667 30.4666 9.7 31.3416L16.2867 37.5166C17.3267 38.4916 19.0067 38.4916 20.0467 37.5166L35.6467 22.8916C36.58 22.0166 36.58 20.5916 35.6467 19.7166C34.7133 18.8416 33.1933 18.8416 32.26 19.7166L18.2067 32.9666Z" fill="black"/>
</svg>
